<mxfile host="Electron" agent="Mozilla/5.0 (Windows NT 10.0; Win64; x64) AppleWebKit/537.36 (KHTML, like Gecko) draw.io/26.2.2 Chrome/134.0.6998.178 Electron/35.1.2 Safari/537.36" version="26.2.2">
  <diagram name="Страница — 1" id="mV8e98su_4Nc6ymKNo2q">
    <mxGraphModel dx="2868" dy="2062" grid="0" gridSize="10" guides="1" tooltips="1" connect="1" arrows="1" fold="1" page="0" pageScale="1" pageWidth="827" pageHeight="1169" math="0" shadow="0">
      <root>
        <mxCell id="0" />
        <mxCell id="1" parent="0" />
        <mxCell id="NfRALg55kkNL8A1F4CW6-4" value="" style="ellipse;whiteSpace=wrap;html=1;aspect=fixed;strokeColor=#828282;" parent="1" vertex="1">
          <mxGeometry x="-515.25" y="-460.25" width="835.5" height="835.5" as="geometry" />
        </mxCell>
        <mxCell id="NfRALg55kkNL8A1F4CW6-3" value="" style="ellipse;whiteSpace=wrap;html=1;aspect=fixed;strokeColor=#828282;" parent="1" vertex="1">
          <mxGeometry x="-424" y="-369" width="653" height="653" as="geometry" />
        </mxCell>
        <mxCell id="NfRALg55kkNL8A1F4CW6-2" value="" style="ellipse;whiteSpace=wrap;html=1;aspect=fixed;strokeColor=#828282;" parent="1" vertex="1">
          <mxGeometry x="-319" y="-264" width="443" height="443" as="geometry" />
        </mxCell>
        <mxCell id="NfRALg55kkNL8A1F4CW6-1" value="" style="ellipse;whiteSpace=wrap;html=1;aspect=fixed;strokeColor=#828282;" parent="1" vertex="1">
          <mxGeometry x="-217" y="-162" width="239" height="239" as="geometry" />
        </mxCell>
        <mxCell id="NfRALg55kkNL8A1F4CW6-6" style="edgeStyle=none;curved=1;rounded=0;orthogonalLoop=1;jettySize=auto;html=1;exitX=0.5;exitY=0;exitDx=0;exitDy=0;entryX=0.5;entryY=1;entryDx=0;entryDy=0;fontSize=12;startSize=8;endSize=8;strokeColor=#828282;endArrow=none;startFill=0;" parent="1" source="NfRALg55kkNL8A1F4CW6-4" target="NfRALg55kkNL8A1F4CW6-4" edge="1">
          <mxGeometry relative="1" as="geometry" />
        </mxCell>
        <mxCell id="NfRALg55kkNL8A1F4CW6-7" value="" style="endArrow=none;html=1;rounded=0;fontSize=12;startSize=8;endSize=8;curved=1;exitX=0;exitY=0.5;exitDx=0;exitDy=0;entryX=1;entryY=0.5;entryDx=0;entryDy=0;strokeColor=#828282;" parent="1" source="NfRALg55kkNL8A1F4CW6-4" target="NfRALg55kkNL8A1F4CW6-4" edge="1">
          <mxGeometry width="50" height="50" relative="1" as="geometry">
            <mxPoint x="76" y="212" as="sourcePoint" />
            <mxPoint x="126" y="162" as="targetPoint" />
          </mxGeometry>
        </mxCell>
        <mxCell id="NfRALg55kkNL8A1F4CW6-8" value="Языки программирвоания и фреймворки" style="text;html=1;align=center;verticalAlign=middle;whiteSpace=wrap;rounded=0;" parent="1" vertex="1">
          <mxGeometry x="-563" y="-453" width="173" height="107" as="geometry" />
        </mxCell>
        <mxCell id="NfRALg55kkNL8A1F4CW6-9" value="Методы и паттерны" style="text;html=1;align=center;verticalAlign=middle;whiteSpace=wrap;rounded=0;" parent="1" vertex="1">
          <mxGeometry x="217" y="-443" width="173" height="107" as="geometry" />
        </mxCell>
        <mxCell id="NfRALg55kkNL8A1F4CW6-10" value="Инструменты" style="text;html=1;align=center;verticalAlign=middle;whiteSpace=wrap;rounded=0;" parent="1" vertex="1">
          <mxGeometry x="253" y="235" width="173" height="107" as="geometry" />
        </mxCell>
        <mxCell id="NfRALg55kkNL8A1F4CW6-11" value="Платформы" style="text;html=1;align=center;verticalAlign=middle;whiteSpace=wrap;rounded=0;" parent="1" vertex="1">
          <mxGeometry x="-583" y="225" width="173" height="107" as="geometry" />
        </mxCell>
        <mxCell id="NfRALg55kkNL8A1F4CW6-14" value="Adopt" style="text;html=1;align=center;verticalAlign=middle;whiteSpace=wrap;rounded=0;fontColor=#828282;" parent="1" vertex="1">
          <mxGeometry x="-72" y="-64" width="60" height="30" as="geometry" />
        </mxCell>
        <mxCell id="NfRALg55kkNL8A1F4CW6-15" value="Trial" style="text;html=1;align=center;verticalAlign=middle;whiteSpace=wrap;rounded=0;fontColor=#828282;" parent="1" vertex="1">
          <mxGeometry x="37" y="-64" width="60" height="30" as="geometry" />
        </mxCell>
        <mxCell id="NfRALg55kkNL8A1F4CW6-16" value="Asset" style="text;html=1;align=center;verticalAlign=middle;whiteSpace=wrap;rounded=0;fontColor=#828282;" parent="1" vertex="1">
          <mxGeometry x="143" y="-64" width="60" height="30" as="geometry" />
        </mxCell>
        <mxCell id="NfRALg55kkNL8A1F4CW6-17" value="Hold" style="text;html=1;align=center;verticalAlign=middle;whiteSpace=wrap;rounded=0;fontColor=#828282;" parent="1" vertex="1">
          <mxGeometry x="242" y="-64" width="60" height="30" as="geometry" />
        </mxCell>
        <mxCell id="NfRALg55kkNL8A1F4CW6-22" value="" style="group" parent="1" vertex="1" connectable="0">
          <mxGeometry x="-166" y="-104" width="68" height="30" as="geometry" />
        </mxCell>
        <mxCell id="NfRALg55kkNL8A1F4CW6-20" value="" style="shape=waypoint;sketch=0;fillStyle=solid;size=6;pointerEvents=1;points=[];fillColor=none;resizable=0;rotatable=0;perimeter=centerPerimeter;snapToPoint=1;" parent="NfRALg55kkNL8A1F4CW6-22" vertex="1">
          <mxGeometry y="5" width="20" height="20" as="geometry" />
        </mxCell>
        <mxCell id="NfRALg55kkNL8A1F4CW6-21" value="Golang" style="text;html=1;align=center;verticalAlign=middle;whiteSpace=wrap;rounded=0;" parent="NfRALg55kkNL8A1F4CW6-22" vertex="1">
          <mxGeometry x="8" width="60" height="30" as="geometry" />
        </mxCell>
        <mxCell id="NfRALg55kkNL8A1F4CW6-23" value="" style="group" parent="1" vertex="1" connectable="0">
          <mxGeometry x="-166" y="-124" width="68" height="30" as="geometry" />
        </mxCell>
        <mxCell id="NfRALg55kkNL8A1F4CW6-24" value="" style="shape=waypoint;sketch=0;fillStyle=solid;size=6;pointerEvents=1;points=[];fillColor=none;resizable=0;rotatable=0;perimeter=centerPerimeter;snapToPoint=1;" parent="NfRALg55kkNL8A1F4CW6-23" vertex="1">
          <mxGeometry y="5" width="20" height="20" as="geometry" />
        </mxCell>
        <mxCell id="NfRALg55kkNL8A1F4CW6-25" value="Java" style="text;html=1;align=center;verticalAlign=middle;whiteSpace=wrap;rounded=0;" parent="NfRALg55kkNL8A1F4CW6-23" vertex="1">
          <mxGeometry x="8" width="60" height="30" as="geometry" />
        </mxCell>
        <mxCell id="NfRALg55kkNL8A1F4CW6-26" value="" style="group" parent="1" vertex="1" connectable="0">
          <mxGeometry x="-167" y="-144" width="68" height="30" as="geometry" />
        </mxCell>
        <mxCell id="NfRALg55kkNL8A1F4CW6-27" value="" style="shape=waypoint;sketch=0;fillStyle=solid;size=6;pointerEvents=1;points=[];fillColor=none;resizable=0;rotatable=0;perimeter=centerPerimeter;snapToPoint=1;" parent="NfRALg55kkNL8A1F4CW6-26" vertex="1">
          <mxGeometry y="5" width="20" height="20" as="geometry" />
        </mxCell>
        <mxCell id="NfRALg55kkNL8A1F4CW6-28" value="Python" style="text;html=1;align=center;verticalAlign=middle;whiteSpace=wrap;rounded=0;" parent="NfRALg55kkNL8A1F4CW6-26" vertex="1">
          <mxGeometry x="8" width="60" height="30" as="geometry" />
        </mxCell>
        <mxCell id="NfRALg55kkNL8A1F4CW6-29" value="" style="group" parent="1" vertex="1" connectable="0">
          <mxGeometry x="-292" y="-93" width="68" height="30" as="geometry" />
        </mxCell>
        <mxCell id="NfRALg55kkNL8A1F4CW6-30" value="" style="shape=waypoint;sketch=0;fillStyle=solid;size=6;pointerEvents=1;points=[];fillColor=none;resizable=0;rotatable=0;perimeter=centerPerimeter;snapToPoint=1;" parent="NfRALg55kkNL8A1F4CW6-29" vertex="1">
          <mxGeometry y="5" width="20" height="20" as="geometry" />
        </mxCell>
        <mxCell id="NfRALg55kkNL8A1F4CW6-31" value="React.js" style="text;html=1;align=center;verticalAlign=middle;whiteSpace=wrap;rounded=0;" parent="NfRALg55kkNL8A1F4CW6-29" vertex="1">
          <mxGeometry x="8" width="60" height="30" as="geometry" />
        </mxCell>
        <mxCell id="NfRALg55kkNL8A1F4CW6-32" value="Trial" style="text;html=1;align=center;verticalAlign=middle;whiteSpace=wrap;rounded=0;fontColor=#828282;" parent="1" vertex="1">
          <mxGeometry x="-292" y="-64" width="60" height="30" as="geometry" />
        </mxCell>
        <mxCell id="NfRALg55kkNL8A1F4CW6-35" value="Asset" style="text;html=1;align=center;verticalAlign=middle;whiteSpace=wrap;rounded=0;fontColor=#828282;" parent="1" vertex="1">
          <mxGeometry x="-400" y="-64" width="60" height="30" as="geometry" />
        </mxCell>
        <mxCell id="NfRALg55kkNL8A1F4CW6-36" value="Hold" style="text;html=1;align=center;verticalAlign=middle;whiteSpace=wrap;rounded=0;fontColor=#828282;" parent="1" vertex="1">
          <mxGeometry x="-500" y="-64" width="60" height="30" as="geometry" />
        </mxCell>
        <mxCell id="NfRALg55kkNL8A1F4CW6-37" value="Adopt" style="text;html=1;align=center;verticalAlign=middle;whiteSpace=wrap;rounded=0;fontColor=#828282;" parent="1" vertex="1">
          <mxGeometry x="-182" y="-64" width="60" height="30" as="geometry" />
        </mxCell>
        <mxCell id="NfRALg55kkNL8A1F4CW6-38" value="" style="group" parent="1" vertex="1" connectable="0">
          <mxGeometry x="-441" y="-258" width="68" height="30" as="geometry" />
        </mxCell>
        <mxCell id="NfRALg55kkNL8A1F4CW6-39" value="" style="shape=waypoint;sketch=0;fillStyle=solid;size=6;pointerEvents=1;points=[];fillColor=none;resizable=0;rotatable=0;perimeter=centerPerimeter;snapToPoint=1;" parent="NfRALg55kkNL8A1F4CW6-38" vertex="1">
          <mxGeometry y="5" width="20" height="20" as="geometry" />
        </mxCell>
        <mxCell id="NfRALg55kkNL8A1F4CW6-40" value="Power Builder" style="text;html=1;align=center;verticalAlign=middle;whiteSpace=wrap;rounded=0;" parent="NfRALg55kkNL8A1F4CW6-38" vertex="1">
          <mxGeometry x="8" width="60" height="30" as="geometry" />
        </mxCell>
        <mxCell id="NfRALg55kkNL8A1F4CW6-41" value="" style="group" parent="1" vertex="1" connectable="0">
          <mxGeometry x="-415" y="186" width="68" height="30" as="geometry" />
        </mxCell>
        <mxCell id="NfRALg55kkNL8A1F4CW6-42" value="" style="shape=waypoint;sketch=0;fillStyle=solid;size=6;pointerEvents=1;points=[];fillColor=none;resizable=0;rotatable=0;perimeter=centerPerimeter;snapToPoint=1;" parent="NfRALg55kkNL8A1F4CW6-41" vertex="1">
          <mxGeometry y="5" width="20" height="20" as="geometry" />
        </mxCell>
        <mxCell id="NfRALg55kkNL8A1F4CW6-43" value="Microsoft SQL Server 2008" style="text;html=1;align=center;verticalAlign=middle;whiteSpace=wrap;rounded=0;" parent="NfRALg55kkNL8A1F4CW6-41" vertex="1">
          <mxGeometry x="8" width="60" height="30" as="geometry" />
        </mxCell>
        <mxCell id="NfRALg55kkNL8A1F4CW6-44" value="" style="group" parent="1" vertex="1" connectable="0">
          <mxGeometry x="-254" y="44" width="68" height="30" as="geometry" />
        </mxCell>
        <mxCell id="NfRALg55kkNL8A1F4CW6-45" value="" style="shape=waypoint;sketch=0;fillStyle=solid;size=6;pointerEvents=1;points=[];fillColor=none;resizable=0;rotatable=0;perimeter=centerPerimeter;snapToPoint=1;" parent="NfRALg55kkNL8A1F4CW6-44" vertex="1">
          <mxGeometry y="5" width="20" height="20" as="geometry" />
        </mxCell>
        <mxCell id="NfRALg55kkNL8A1F4CW6-46" value="MinIO" style="text;html=1;align=center;verticalAlign=middle;whiteSpace=wrap;rounded=0;" parent="NfRALg55kkNL8A1F4CW6-44" vertex="1">
          <mxGeometry x="8" width="60" height="30" as="geometry" />
        </mxCell>
        <mxCell id="NfRALg55kkNL8A1F4CW6-47" value="" style="group" parent="1" vertex="1" connectable="0">
          <mxGeometry x="-12" y="-154" width="68" height="30" as="geometry" />
        </mxCell>
        <mxCell id="NfRALg55kkNL8A1F4CW6-48" value="" style="shape=waypoint;sketch=0;fillStyle=solid;size=6;pointerEvents=1;points=[];fillColor=none;resizable=0;rotatable=0;perimeter=centerPerimeter;snapToPoint=1;" parent="NfRALg55kkNL8A1F4CW6-47" vertex="1">
          <mxGeometry y="5" width="20" height="20" as="geometry" />
        </mxCell>
        <mxCell id="NfRALg55kkNL8A1F4CW6-49" value="Data Mesh" style="text;html=1;align=center;verticalAlign=middle;whiteSpace=wrap;rounded=0;" parent="NfRALg55kkNL8A1F4CW6-47" vertex="1">
          <mxGeometry x="8" width="60" height="30" as="geometry" />
        </mxCell>
        <mxCell id="NfRALg55kkNL8A1F4CW6-50" value="" style="group" parent="1" vertex="1" connectable="0">
          <mxGeometry x="171" y="-270" width="68" height="30" as="geometry" />
        </mxCell>
        <mxCell id="NfRALg55kkNL8A1F4CW6-51" value="" style="shape=waypoint;sketch=0;fillStyle=solid;size=6;pointerEvents=1;points=[];fillColor=none;resizable=0;rotatable=0;perimeter=centerPerimeter;snapToPoint=1;" parent="NfRALg55kkNL8A1F4CW6-50" vertex="1">
          <mxGeometry y="5" width="20" height="20" as="geometry" />
        </mxCell>
        <mxCell id="NfRALg55kkNL8A1F4CW6-52" value="DWH" style="text;html=1;align=center;verticalAlign=middle;whiteSpace=wrap;rounded=0;" parent="NfRALg55kkNL8A1F4CW6-50" vertex="1">
          <mxGeometry x="8" width="60" height="30" as="geometry" />
        </mxCell>
        <mxCell id="NfRALg55kkNL8A1F4CW6-53" value="" style="group" parent="1" vertex="1" connectable="0">
          <mxGeometry x="-85" y="-2" width="68" height="30" as="geometry" />
        </mxCell>
        <mxCell id="NfRALg55kkNL8A1F4CW6-54" value="" style="shape=waypoint;sketch=0;fillStyle=solid;size=6;pointerEvents=1;points=[];fillColor=none;resizable=0;rotatable=0;perimeter=centerPerimeter;snapToPoint=1;" parent="NfRALg55kkNL8A1F4CW6-53" vertex="1">
          <mxGeometry y="5" width="20" height="20" as="geometry" />
        </mxCell>
        <mxCell id="NfRALg55kkNL8A1F4CW6-55" value="Power BI" style="text;html=1;align=center;verticalAlign=middle;whiteSpace=wrap;rounded=0;" parent="NfRALg55kkNL8A1F4CW6-53" vertex="1">
          <mxGeometry x="8" width="60" height="30" as="geometry" />
        </mxCell>
        <mxCell id="NfRALg55kkNL8A1F4CW6-56" value="" style="group" parent="1" vertex="1" connectable="0">
          <mxGeometry x="-347" y="242" width="68" height="30" as="geometry" />
        </mxCell>
        <mxCell id="NfRALg55kkNL8A1F4CW6-57" value="" style="shape=waypoint;sketch=0;fillStyle=solid;size=6;pointerEvents=1;points=[];fillColor=none;resizable=0;rotatable=0;perimeter=centerPerimeter;snapToPoint=1;" parent="NfRALg55kkNL8A1F4CW6-56" vertex="1">
          <mxGeometry y="5" width="20" height="20" as="geometry" />
        </mxCell>
        <mxCell id="NfRALg55kkNL8A1F4CW6-58" value="Apache Camel" style="text;html=1;align=center;verticalAlign=middle;whiteSpace=wrap;rounded=0;" parent="NfRALg55kkNL8A1F4CW6-56" vertex="1">
          <mxGeometry x="8" width="60" height="30" as="geometry" />
        </mxCell>
        <mxCell id="NfRALg55kkNL8A1F4CW6-59" value="" style="group" parent="1" vertex="1" connectable="0">
          <mxGeometry x="10" y="53" width="68" height="30" as="geometry" />
        </mxCell>
        <mxCell id="NfRALg55kkNL8A1F4CW6-60" value="" style="shape=waypoint;sketch=0;fillStyle=solid;size=6;pointerEvents=1;points=[];fillColor=none;resizable=0;rotatable=0;perimeter=centerPerimeter;snapToPoint=1;" parent="NfRALg55kkNL8A1F4CW6-59" vertex="1">
          <mxGeometry y="5" width="20" height="20" as="geometry" />
        </mxCell>
        <mxCell id="NfRALg55kkNL8A1F4CW6-61" value="Superset" style="text;html=1;align=center;verticalAlign=middle;whiteSpace=wrap;rounded=0;" parent="NfRALg55kkNL8A1F4CW6-59" vertex="1">
          <mxGeometry x="8" width="60" height="30" as="geometry" />
        </mxCell>
        <mxCell id="NfRALg55kkNL8A1F4CW6-62" value="" style="group" parent="1" vertex="1" connectable="0">
          <mxGeometry x="-193" y="-19" width="68" height="30" as="geometry" />
        </mxCell>
        <mxCell id="NfRALg55kkNL8A1F4CW6-63" value="" style="shape=waypoint;sketch=0;fillStyle=solid;size=6;pointerEvents=1;points=[];fillColor=none;resizable=0;rotatable=0;perimeter=centerPerimeter;snapToPoint=1;" parent="NfRALg55kkNL8A1F4CW6-62" vertex="1">
          <mxGeometry y="5" width="20" height="20" as="geometry" />
        </mxCell>
        <mxCell id="NfRALg55kkNL8A1F4CW6-64" value="Kafka" style="text;html=1;align=center;verticalAlign=middle;whiteSpace=wrap;rounded=0;" parent="NfRALg55kkNL8A1F4CW6-62" vertex="1">
          <mxGeometry x="8" width="60" height="30" as="geometry" />
        </mxCell>
        <mxCell id="NfRALg55kkNL8A1F4CW6-65" value="" style="group" parent="1" vertex="1" connectable="0">
          <mxGeometry x="-274" y="-154" width="68" height="30" as="geometry" />
        </mxCell>
        <mxCell id="NfRALg55kkNL8A1F4CW6-66" value="" style="shape=waypoint;sketch=0;fillStyle=solid;size=6;pointerEvents=1;points=[];fillColor=none;resizable=0;rotatable=0;perimeter=centerPerimeter;snapToPoint=1;" parent="NfRALg55kkNL8A1F4CW6-65" vertex="1">
          <mxGeometry y="5" width="20" height="20" as="geometry" />
        </mxCell>
        <mxCell id="NfRALg55kkNL8A1F4CW6-67" value="Iceberg" style="text;html=1;align=center;verticalAlign=middle;whiteSpace=wrap;rounded=0;" parent="NfRALg55kkNL8A1F4CW6-65" vertex="1">
          <mxGeometry x="8" width="60" height="30" as="geometry" />
        </mxCell>
        <mxCell id="NfRALg55kkNL8A1F4CW6-68" value="" style="group" parent="1" vertex="1" connectable="0">
          <mxGeometry x="-243" y="80" width="68" height="30" as="geometry" />
        </mxCell>
        <mxCell id="NfRALg55kkNL8A1F4CW6-69" value="" style="shape=waypoint;sketch=0;fillStyle=solid;size=6;pointerEvents=1;points=[];fillColor=none;resizable=0;rotatable=0;perimeter=centerPerimeter;snapToPoint=1;" parent="NfRALg55kkNL8A1F4CW6-68" vertex="1">
          <mxGeometry y="5" width="20" height="20" as="geometry" />
        </mxCell>
        <mxCell id="NfRALg55kkNL8A1F4CW6-70" value="&amp;nbsp;Apache airflow" style="text;html=1;align=center;verticalAlign=middle;whiteSpace=wrap;rounded=0;" parent="NfRALg55kkNL8A1F4CW6-68" vertex="1">
          <mxGeometry x="8" width="60" height="30" as="geometry" />
        </mxCell>
        <mxCell id="NfRALg55kkNL8A1F4CW6-71" value="" style="group" parent="1" vertex="1" connectable="0">
          <mxGeometry x="-186" y="120" width="68" height="30" as="geometry" />
        </mxCell>
        <mxCell id="NfRALg55kkNL8A1F4CW6-72" value="" style="shape=waypoint;sketch=0;fillStyle=solid;size=6;pointerEvents=1;points=[];fillColor=none;resizable=0;rotatable=0;perimeter=centerPerimeter;snapToPoint=1;" parent="NfRALg55kkNL8A1F4CW6-71" vertex="1">
          <mxGeometry y="5" width="20" height="20" as="geometry" />
        </mxCell>
        <mxCell id="NfRALg55kkNL8A1F4CW6-73" value="Dremio" style="text;html=1;align=center;verticalAlign=middle;whiteSpace=wrap;rounded=0;" parent="NfRALg55kkNL8A1F4CW6-71" vertex="1">
          <mxGeometry x="8" width="60" height="30" as="geometry" />
        </mxCell>
        <mxCell id="NfRALg55kkNL8A1F4CW6-74" value="" style="group" parent="1" vertex="1" connectable="0">
          <mxGeometry x="-58" y="-204" width="68" height="30" as="geometry" />
        </mxCell>
        <mxCell id="NfRALg55kkNL8A1F4CW6-75" value="" style="shape=waypoint;sketch=0;fillStyle=solid;size=6;pointerEvents=1;points=[];fillColor=none;resizable=0;rotatable=0;perimeter=centerPerimeter;snapToPoint=1;" parent="NfRALg55kkNL8A1F4CW6-74" vertex="1">
          <mxGeometry y="5" width="20" height="20" as="geometry" />
        </mxCell>
        <mxCell id="NfRALg55kkNL8A1F4CW6-76" value="Data Lakehouse" style="text;html=1;align=center;verticalAlign=middle;whiteSpace=wrap;rounded=0;" parent="NfRALg55kkNL8A1F4CW6-74" vertex="1">
          <mxGeometry x="8" width="60" height="30" as="geometry" />
        </mxCell>
        <mxCell id="NfRALg55kkNL8A1F4CW6-77" value="" style="group" parent="1" vertex="1" connectable="0">
          <mxGeometry x="-85" y="-99" width="68" height="30" as="geometry" />
        </mxCell>
        <mxCell id="NfRALg55kkNL8A1F4CW6-78" value="" style="shape=waypoint;sketch=0;fillStyle=solid;size=6;pointerEvents=1;points=[];fillColor=none;resizable=0;rotatable=0;perimeter=centerPerimeter;snapToPoint=1;" parent="NfRALg55kkNL8A1F4CW6-77" vertex="1">
          <mxGeometry y="5" width="20" height="20" as="geometry" />
        </mxCell>
        <mxCell id="NfRALg55kkNL8A1F4CW6-79" value="ETL" style="text;html=1;align=center;verticalAlign=middle;whiteSpace=wrap;rounded=0;" parent="NfRALg55kkNL8A1F4CW6-77" vertex="1">
          <mxGeometry x="8" width="60" height="30" as="geometry" />
        </mxCell>
        <mxCell id="NfRALg55kkNL8A1F4CW6-80" value="" style="group" parent="1" vertex="1" connectable="0">
          <mxGeometry x="-292" y="14" width="68" height="30" as="geometry" />
        </mxCell>
        <mxCell id="NfRALg55kkNL8A1F4CW6-81" value="" style="shape=waypoint;sketch=0;fillStyle=solid;size=6;pointerEvents=1;points=[];fillColor=none;resizable=0;rotatable=0;perimeter=centerPerimeter;snapToPoint=1;" parent="NfRALg55kkNL8A1F4CW6-80" vertex="1">
          <mxGeometry y="5" width="20" height="20" as="geometry" />
        </mxCell>
        <mxCell id="NfRALg55kkNL8A1F4CW6-82" value="Nessie" style="text;html=1;align=center;verticalAlign=middle;whiteSpace=wrap;rounded=0;" parent="NfRALg55kkNL8A1F4CW6-80" vertex="1">
          <mxGeometry x="8" width="60" height="30" as="geometry" />
        </mxCell>
        <mxCell id="NfRALg55kkNL8A1F4CW6-83" value="" style="group" parent="1" vertex="1" connectable="0">
          <mxGeometry x="-90" y="-123" width="68" height="30" as="geometry" />
        </mxCell>
        <mxCell id="NfRALg55kkNL8A1F4CW6-84" value="" style="shape=waypoint;sketch=0;fillStyle=solid;size=6;pointerEvents=1;points=[];fillColor=none;resizable=0;rotatable=0;perimeter=centerPerimeter;snapToPoint=1;" parent="NfRALg55kkNL8A1F4CW6-83" vertex="1">
          <mxGeometry y="5" width="20" height="20" as="geometry" />
        </mxCell>
        <mxCell id="NfRALg55kkNL8A1F4CW6-85" value="REST" style="text;html=1;align=center;verticalAlign=middle;whiteSpace=wrap;rounded=0;" parent="NfRALg55kkNL8A1F4CW6-83" vertex="1">
          <mxGeometry x="8" width="60" height="30" as="geometry" />
        </mxCell>
        <mxCell id="NfRALg55kkNL8A1F4CW6-86" value="" style="group" parent="1" vertex="1" connectable="0">
          <mxGeometry x="-170" y="10" width="68" height="30" as="geometry" />
        </mxCell>
        <mxCell id="NfRALg55kkNL8A1F4CW6-87" value="" style="shape=waypoint;sketch=0;fillStyle=solid;size=6;pointerEvents=1;points=[];fillColor=none;resizable=0;rotatable=0;perimeter=centerPerimeter;snapToPoint=1;" parent="NfRALg55kkNL8A1F4CW6-86" vertex="1">
          <mxGeometry y="5" width="20" height="20" as="geometry" />
        </mxCell>
        <mxCell id="NfRALg55kkNL8A1F4CW6-88" value="AI\ML" style="text;html=1;align=center;verticalAlign=middle;whiteSpace=wrap;rounded=0;" parent="NfRALg55kkNL8A1F4CW6-86" vertex="1">
          <mxGeometry x="8" width="60" height="30" as="geometry" />
        </mxCell>
        <mxCell id="NfRALg55kkNL8A1F4CW6-89" value="" style="group" parent="1" vertex="1" connectable="0">
          <mxGeometry x="-94" y="23" width="68" height="30" as="geometry" />
        </mxCell>
        <mxCell id="NfRALg55kkNL8A1F4CW6-90" value="" style="shape=waypoint;sketch=0;fillStyle=solid;size=6;pointerEvents=1;points=[];fillColor=none;resizable=0;rotatable=0;perimeter=centerPerimeter;snapToPoint=1;" parent="NfRALg55kkNL8A1F4CW6-89" vertex="1">
          <mxGeometry y="5" width="20" height="20" as="geometry" />
        </mxCell>
        <mxCell id="NfRALg55kkNL8A1F4CW6-91" value="Docker" style="text;html=1;align=center;verticalAlign=middle;whiteSpace=wrap;rounded=0;" parent="NfRALg55kkNL8A1F4CW6-89" vertex="1">
          <mxGeometry x="8" width="60" height="30" as="geometry" />
        </mxCell>
        <mxCell id="NfRALg55kkNL8A1F4CW6-92" value="" style="group" parent="1" vertex="1" connectable="0">
          <mxGeometry x="-95" y="-152" width="68" height="30" as="geometry" />
        </mxCell>
        <mxCell id="NfRALg55kkNL8A1F4CW6-93" value="" style="shape=waypoint;sketch=0;fillStyle=solid;size=6;pointerEvents=1;points=[];fillColor=none;resizable=0;rotatable=0;perimeter=centerPerimeter;snapToPoint=1;" parent="NfRALg55kkNL8A1F4CW6-92" vertex="1">
          <mxGeometry y="5" width="20" height="20" as="geometry" />
        </mxCell>
        <mxCell id="NfRALg55kkNL8A1F4CW6-94" value="DDD" style="text;html=1;align=center;verticalAlign=middle;whiteSpace=wrap;rounded=0;" parent="NfRALg55kkNL8A1F4CW6-92" vertex="1">
          <mxGeometry x="8" width="60" height="30" as="geometry" />
        </mxCell>
        <mxCell id="NYqLund_cO5bQ4HZ-qNa-1" value="&lt;h1 style=&quot;margin-top: 0px;&quot;&gt;Легенда&lt;/h1&gt;&lt;p&gt;Adopt — устоявшиеся технологии. Они используются в проде, имеют низкий уровень риска и рекомендуются к широкому применению.&lt;/p&gt;&lt;p&gt;Trial — «пробные» технологии или «технологии на подъёме», которые успешно работают и проверены на реальной проблеме, но у которых, возможно, выявлены ещё не все ограничения. У таких технологий степень риска пока выше в силу небольшого применения.&lt;/p&gt;&lt;p&gt;Asset — «оценочные» технологии, которые являются многообещающими и имеют явную потенциальную ценность для организации — те самые инвестиции. Они подходят для создания прототипов в целях выявления ограничений и возможностей.&lt;/p&gt;&lt;p&gt;Hold — по факту технологии, которые больше нежелательны для применения в новых проектах. Они с большой вероятностью будут постепенно выводиться из ландшафта.&lt;/p&gt;" style="text;html=1;whiteSpace=wrap;overflow=hidden;rounded=0;" vertex="1" parent="1">
          <mxGeometry x="511" y="-290" width="347" height="502" as="geometry" />
        </mxCell>
      </root>
    </mxGraphModel>
  </diagram>
</mxfile>
